<?xml version="1.0" encoding="utf-8"?>
<!-- Generator: Adobe Illustrator 27.2.0, SVG Export Plug-In . SVG Version: 6.00 Build 0)  -->
<svg version="1.1" id="Layer_1" xmlns="http://www.w3.org/2000/svg" xmlns:xlink="http://www.w3.org/1999/xlink" x="0px" y="0px"
	 viewBox="0 0 144 144" style="enable-background:new 0 0 144 144;" xml:space="preserve">
<style type="text/css">
	.st0{opacity:0.2;}
	.st1{fill:#010101;}
	.st2{fill:url(#SVGID_1_);}
	.st3{fill:#262262;}
</style>
<g>
	<g class="st0">
		<path class="st1" d="M41.08,70.96c-4.71-17.07,5.32-34.73,22.39-39.44s34.73,5.32,39.44,22.39c1.54,5.58,1.54,11.47,0,17.04
			L41.08,70.96z"/>
	</g>
	<path class="st1" d="M45.14,8.74c-0.9-2.18,0.14-4.68,2.32-5.58c2.18-0.9,4.67,0.13,5.58,2.31l4.09,9.88
		c0.91,2.18-0.13,4.68-2.31,5.59c-2.18,0.91-4.68-0.13-5.59-2.31c0,0,0-0.01-0.01-0.01L45.14,8.74z M15.06,43.45l9.88,4.09
		c2.18,0.91,4.68-0.13,5.59-2.31s-0.13-4.68-2.31-5.59c0,0-0.01,0-0.01,0l-9.88-4.09c-2.18-0.91-4.68,0.13-5.59,2.31
		c-0.91,2.18,0.13,4.68,2.31,5.59C15.05,43.44,15.06,43.45,15.06,43.45L15.06,43.45z M117.43,47.86c0.56,0,1.12-0.11,1.63-0.33
		l9.88-4.09c2.18-0.9,3.22-3.4,2.32-5.58c-0.9-2.18-3.4-3.22-5.58-2.32c0,0-0.01,0-0.01,0l-9.88,4.09c-2.18,0.9-3.22,3.41-2.31,5.59
		C114.14,46.82,115.7,47.86,117.43,47.86z M89.18,20.93c2.18,0.9,4.68-0.13,5.58-2.31c0,0,0,0,0-0.01l4.09-9.88
		c0.9-2.18-0.14-4.68-2.32-5.58c-2.18-0.9-4.68,0.13-5.58,2.31l-4.09,9.88C85.96,17.52,87,20.02,89.18,20.93
		C89.18,20.93,89.18,20.93,89.18,20.93z M136.14,70.96c0,2.36-1.91,4.28-4.28,4.28h-28.93l-0.01,0l-0.02,0H12.14
		c-2.36,0-4.28-1.91-4.28-4.28c0-2.36,1.91-4.28,4.28-4.28h23.77C33.54,46.75,47.77,28.67,67.7,26.3
		c19.93-2.37,38.01,11.86,40.39,31.79c0.34,2.85,0.34,5.74,0,8.59h23.77C134.22,66.68,136.14,68.6,136.14,70.96z M44.54,66.68h54.92
		c2.36-15.17-8.02-29.38-23.19-31.74c-15.17-2.36-29.38,8.02-31.74,23.19C44.1,60.97,44.1,63.85,44.54,66.68z M114.76,88.06H29.24
		c-2.36,0-4.28,1.91-4.28,4.28c0,2.36,1.91,4.28,4.28,4.28h85.52c2.36,0,4.28-1.91,4.28-4.28
		C119.03,89.97,117.12,88.06,114.76,88.06z"/>
</g>
<g>
	<g>
		<linearGradient id="SVGID_1_" gradientUnits="userSpaceOnUse" x1="11.913" y1="90.9762" x2="128.8134" y2="90.9762">
			<stop  offset="0" style="stop-color:#CCE0F4"/>
			<stop  offset="0.1599" style="stop-color:#9BCAEC"/>
			<stop  offset="0.3757" style="stop-color:#5BB3E4"/>
			<stop  offset="0.5752" style="stop-color:#00A3DE"/>
			<stop  offset="0.7522" style="stop-color:#009ADA"/>
			<stop  offset="0.8998" style="stop-color:#0094D8"/>
			<stop  offset="1" style="stop-color:#0093D8"/>
		</linearGradient>
		<path class="st2" d="M18.78,140.25c-2.33,0-4.08-0.65-5.2-1.94c-1.11-1.27-1.67-2.84-1.67-4.68c0-0.79,0.11-1.68,0.33-2.63
			c0.8-3.21,1.93-6.81,3.36-10.72c1.42-3.89,3.09-8.02,4.96-12.26c1.86-4.22,3.94-8.58,6.19-12.95c2.24-4.35,4.6-8.66,7.01-12.79
			c2.41-4.13,4.92-8.09,7.46-11.76c2.54-3.68,5.09-7.01,7.57-9.91c0.72-0.81,1.62-1.8,2.69-2.97c1.08-1.18,2.3-2.42,3.62-3.68
			c1.32-1.25,2.72-2.52,4.18-3.77c1.46-1.25,2.95-2.38,4.43-3.38c1.49-1,2.96-1.82,4.37-2.44c1.45-0.63,2.81-0.96,4.05-0.96
			c1.65,0,3.19,0.29,4.57,0.86c1.38,0.57,2.59,1.4,3.58,2.45c0.99,1.05,1.76,2.33,2.31,3.79c0.54,1.46,0.82,3.08,0.82,4.81
			c0,0.73-0.05,1.48-0.16,2.22c-0.11,0.72-0.25,1.48-0.42,2.24l-6.5,32.7c0.38-0.56,0.79-1.17,1.25-1.84
			c1.14-1.66,2.42-3.51,3.85-5.55c1.43-2.04,2.92-4.16,4.48-6.37c1.56-2.21,3.08-4.34,4.58-6.41c1.49-2.06,2.87-3.94,4.13-5.65
			c1.26-1.7,2.29-3.08,3.09-4.14l1.14-1.46c0.77-0.99,1.71-2.14,2.79-3.42c1.09-1.3,2.32-2.69,3.64-4.12
			c1.34-1.44,2.76-2.87,4.22-4.25c1.47-1.39,3-2.66,4.53-3.76c1.54-1.11,3.07-2.03,4.56-2.73c1.53-0.72,3.02-1.09,4.44-1.09
			c1.11,0,2.05,0.26,2.81,0.78c0.74,0.51,1.34,1.19,1.8,2.03c0.44,0.82,0.76,1.8,0.94,2.9c0.17,1.08,0.26,2.21,0.26,3.36
			c0,1.78-0.15,3.61-0.45,5.44c-0.3,1.82-0.64,3.49-1.02,4.96c-0.2,1.14-0.49,2.82-0.84,5c-0.36,2.19-0.78,4.7-1.26,7.54
			c-0.48,2.84-1,5.91-1.54,9.2l-1.67,10.06c-0.57,3.41-1.14,6.77-1.7,10.09c-0.57,3.32-1.09,6.42-1.58,9.3
			c-0.48,2.88-0.93,5.46-1.33,7.73c-0.4,2.28-0.73,4.04-0.98,5.31c-0.13,0.6-0.33,1.41-0.61,2.43c-0.28,1.05-0.7,2.08-1.24,3.07
			c-0.55,1.02-1.3,1.92-2.2,2.67c-0.95,0.79-2.13,1.19-3.5,1.19c-0.78,0-1.52-0.25-2.22-0.76c-0.65-0.47-1.24-1.07-1.75-1.78
			c-0.51-0.71-0.91-1.48-1.2-2.3c-0.29-0.81-0.46-1.57-0.5-2.24l0-0.07l13.13-62.37c0.12-0.58,0.23-1.1,0.31-1.56
			c0.08-0.43,0.12-0.85,0.12-1.23c0-0.41-0.05-0.79-0.14-1.13c-0.11-0.38-0.2-0.74-0.29-1.08c-0.04-0.11-0.08-0.22-0.11-0.33
			c-1.72,1.35-3.57,3.03-5.51,5c-2.14,2.18-4.34,4.65-6.53,7.34c-2.19,2.69-4.41,5.59-6.6,8.62c-2.2,3.03-4.3,6.11-6.26,9.15
			c-1.55,2.39-3.24,4.94-5.02,7.58c-1.79,2.65-3.58,5.31-5.39,7.98c-1.79,2.65-3.56,5.34-5.26,8c-1.68,2.64-3.24,5.21-4.62,7.64
			c-0.66,1.15-1.35,2.65-2.05,4.47c-0.71,1.85-1.52,3.69-2.38,5.46c-0.87,1.79-1.83,3.35-2.83,4.63c-1.08,1.38-2.35,2.08-3.77,2.08
			c-1.03,0-1.92-0.16-2.63-0.49c-0.72-0.32-1.3-0.77-1.73-1.31c-0.42-0.54-0.73-1.17-0.91-1.89c-0.18-0.69-0.27-1.44-0.27-2.24
			c0-0.99,0.1-2,0.29-3c0.19-0.97,0.39-1.91,0.6-2.79c0.88-3.71,1.82-7.42,2.78-11.05c0.97-3.66,1.97-7.4,3-11.23
			c1.03-3.83,2.09-7.79,3.18-11.89c1.09-4.09,2.21-8.49,3.34-13.07c0.29-1.29,0.63-2.76,1.01-4.38c0.37-1.57,0.73-3.22,1.07-4.9
			c0.33-1.64,0.61-3.25,0.81-4.79c0.21-1.53,0.31-2.91,0.31-4.09c0-1.04-0.08-1.88-0.24-2.49c-0.16-0.6-0.38-0.6-0.46-0.6
			c-1.45,0-3.01,0.55-4.64,1.65c-1.68,1.13-3.42,2.64-5.15,4.5c-1.74,1.86-3.49,4.03-5.19,6.44c-1.71,2.42-3.36,4.94-4.9,7.5
			c-1.54,2.57-3,5.14-4.34,7.64c-1.33,2.5-2.5,4.78-3.46,6.79c-0.22,0.43-0.52,1.02-0.93,1.76c-0.39,0.72-0.92,1.76-1.57,3.07
			c-0.64,1.3-1.44,3-2.39,5.06c-0.94,2.04-2.06,4.67-3.33,7.8c-1.28,3.14-2.77,6.94-4.44,11.28c-1.67,4.34-3.58,9.51-5.67,15.37
			c-0.42,1.11-1.15,2.02-2.18,2.71C20.97,139.9,19.89,140.25,18.78,140.25z"/>
		<path class="st3" d="M123.02,42.2c1.01,0,1.85,0.23,2.52,0.69c0.67,0.46,1.22,1.08,1.64,1.86c0.42,0.78,0.71,1.69,0.88,2.74
			c0.17,1.05,0.25,2.14,0.25,3.28c0,1.77-0.15,3.55-0.44,5.36c-0.29,1.81-0.63,3.45-1.01,4.92c-0.21,1.18-0.5,2.86-0.85,5.04
			c-0.36,2.19-0.78,4.7-1.26,7.54c-0.48,2.84-1,5.91-1.54,9.21c-0.55,3.3-1.1,6.65-1.67,10.06c-0.57,3.41-1.14,6.77-1.7,10.09
			c-0.57,3.32-1.09,6.42-1.58,9.3c-0.48,2.88-0.92,5.46-1.32,7.72c-0.4,2.27-0.73,4.04-0.98,5.3c-0.13,0.59-0.33,1.39-0.6,2.4
			c-0.27,1.01-0.67,2-1.2,2.96c-0.53,0.97-1.22,1.81-2.08,2.52c-0.86,0.71-1.92,1.07-3.18,1.07c-0.67,0-1.31-0.22-1.92-0.66
			c-0.61-0.44-1.16-1-1.64-1.67c-0.48-0.67-0.86-1.4-1.13-2.18c-0.27-0.78-0.43-1.48-0.47-2.11l13.12-62.3
			c0.13-0.59,0.23-1.11,0.32-1.58c0.08-0.46,0.13-0.9,0.13-1.32c0-0.46-0.05-0.88-0.16-1.26c-0.11-0.38-0.2-0.73-0.28-1.07
			c-0.13-0.38-0.25-0.71-0.38-1.01c-1.89,1.43-3.92,3.25-6.08,5.45c-2.17,2.21-4.35,4.67-6.56,7.38c-2.21,2.71-4.41,5.59-6.62,8.64
			c-2.21,3.05-4.3,6.11-6.27,9.18c-1.56,2.4-3.23,4.92-5.01,7.57c-1.79,2.65-3.58,5.31-5.39,7.98c-1.81,2.67-3.56,5.34-5.27,8.01
			c-1.7,2.67-3.25,5.22-4.63,7.66c-0.67,1.18-1.37,2.69-2.08,4.54c-0.72,1.85-1.5,3.66-2.36,5.42c-0.86,1.77-1.79,3.28-2.77,4.54
			c-0.99,1.26-2.11,1.89-3.37,1.89c-0.97,0-1.78-0.15-2.43-0.44c-0.65-0.29-1.17-0.68-1.54-1.17c-0.38-0.48-0.65-1.05-0.82-1.7
			c-0.17-0.65-0.25-1.36-0.25-2.11c0-0.97,0.09-1.93,0.28-2.9c0.19-0.97,0.39-1.89,0.6-2.77c0.88-3.7,1.81-7.38,2.77-11.04
			c0.97-3.66,1.96-7.4,3-11.22c1.03-3.83,2.09-7.79,3.18-11.89c1.09-4.1,2.21-8.46,3.34-13.08c0.29-1.3,0.63-2.76,1.01-4.38
			c0.38-1.62,0.73-3.26,1.07-4.92c0.34-1.66,0.61-3.27,0.82-4.82c0.21-1.55,0.32-2.94,0.32-4.16c0-1.09-0.08-1.96-0.25-2.62
			c-0.17-0.65-0.48-0.98-0.95-0.98c-1.56,0-3.2,0.58-4.92,1.73c-1.72,1.16-3.47,2.68-5.23,4.57c-1.77,1.89-3.51,4.06-5.23,6.5
			c-1.72,2.44-3.36,4.95-4.92,7.54c-1.56,2.59-3.01,5.14-4.35,7.66c-1.35,2.52-2.5,4.79-3.47,6.81c-0.21,0.42-0.52,1-0.91,1.73
			c-0.4,0.74-0.93,1.77-1.58,3.09c-0.65,1.32-1.45,3.02-2.4,5.08c-0.95,2.06-2.06,4.67-3.34,7.82c-1.28,3.15-2.76,6.92-4.45,11.29
			c-1.68,4.37-3.57,9.5-5.68,15.39c-0.38,1.01-1.04,1.83-1.99,2.46c-0.95,0.63-1.92,0.95-2.93,0.95c-2.19,0-3.79-0.59-4.82-1.77
			c-1.03-1.18-1.54-2.63-1.54-4.35c0-0.76,0.1-1.6,0.32-2.52c0.8-3.19,1.91-6.75,3.34-10.66c1.43-3.91,3.08-7.99,4.95-12.23
			c1.87-4.25,3.93-8.55,6.18-12.93c2.25-4.37,4.58-8.63,7-12.77c2.42-4.14,4.9-8.05,7.44-11.73c2.54-3.68,5.05-6.97,7.54-9.87
			c0.71-0.8,1.61-1.79,2.68-2.96c1.07-1.18,2.27-2.4,3.59-3.66c1.32-1.26,2.71-2.51,4.16-3.75c1.45-1.24,2.91-2.35,4.38-3.34
			c1.47-0.99,2.9-1.79,4.29-2.4c1.39-0.61,2.67-0.91,3.85-0.91c1.6,0,3.06,0.27,4.38,0.82c1.32,0.55,2.46,1.32,3.4,2.33
			c0.95,1.01,1.68,2.22,2.21,3.63c0.53,1.41,0.79,2.95,0.79,4.63c0,0.72-0.05,1.43-0.16,2.14c-0.11,0.72-0.24,1.45-0.41,2.21
			l-7,35.19c0.63-0.97,1.51-2.28,2.65-3.94c1.13-1.66,2.42-3.51,3.85-5.55c1.43-2.04,2.92-4.16,4.48-6.37
			c1.56-2.21,3.08-4.34,4.57-6.4c1.49-2.06,2.87-3.94,4.13-5.64c1.26-1.7,2.29-3.08,3.09-4.13l1.14-1.45
			c0.76-0.97,1.68-2.1,2.77-3.4c1.09-1.3,2.3-2.67,3.63-4.1c1.32-1.43,2.72-2.84,4.19-4.22c1.47-1.39,2.96-2.63,4.48-3.72
			c1.51-1.09,3-1.99,4.48-2.68C120.26,42.55,121.67,42.2,123.02,42.2 M123.02,41.2c-1.49,0-3.05,0.38-4.65,1.14
			c-1.52,0.71-3.08,1.65-4.64,2.77c-1.55,1.12-3.09,2.4-4.58,3.8c-1.47,1.38-2.89,2.82-4.24,4.27c-1.33,1.44-2.56,2.83-3.66,4.14
			c-1.08,1.28-2.02,2.44-2.8,3.43l-1.14,1.45c-0.81,1.07-1.84,2.44-3.11,4.15c-1.3,1.76-2.69,3.66-4.14,5.65
			c-1.47,2.03-3.01,4.18-4.58,6.41c-1.56,2.21-3.05,4.33-4.48,6.37c-1.37,1.96-2.63,3.77-3.72,5.37l6.03-30.29
			c0.17-0.76,0.31-1.52,0.42-2.26c0.11-0.77,0.17-1.54,0.17-2.29c0-1.79-0.29-3.47-0.85-4.98c-0.57-1.53-1.38-2.86-2.41-3.96
			c-1.04-1.11-2.3-1.97-3.75-2.57c-1.44-0.59-3.04-0.9-4.76-0.9c-1.31,0-2.74,0.34-4.25,1c-1.43,0.63-2.93,1.47-4.44,2.48
			c-1.49,1-3,2.15-4.47,3.41c-1.46,1.25-2.88,2.53-4.2,3.79c-1.33,1.27-2.56,2.52-3.64,3.71c-1.07,1.18-1.97,2.17-2.69,2.97
			c-2.5,2.93-5.06,6.27-7.61,9.97c-2.54,3.68-5.06,7.65-7.48,11.79c-2.42,4.14-4.78,8.45-7.03,12.82
			c-2.25,4.38-4.34,8.75-6.21,12.98c-1.87,4.26-3.55,8.39-4.97,12.29c-1.44,3.93-2.57,7.55-3.37,10.76
			c-0.23,1.01-0.35,1.93-0.35,2.76c0,1.96,0.6,3.65,1.79,5.01c1.22,1.4,3.1,2.11,5.58,2.11c1.21,0,2.38-0.37,3.49-1.11
			c1.12-0.75,1.92-1.73,2.37-2.94c2.1-5.88,4-11.04,5.67-15.38c1.67-4.34,3.16-8.13,4.44-11.27c1.27-3.12,2.39-5.74,3.32-7.78
			c0.94-2.06,1.75-3.76,2.38-5.05c0.64-1.31,1.17-2.33,1.56-3.05c0.41-0.75,0.72-1.34,0.93-1.76c0.97-2.02,2.13-4.29,3.46-6.79
			c1.33-2.49,2.78-5.06,4.33-7.62c1.54-2.55,3.18-5.07,4.88-7.47c1.69-2.39,3.42-4.54,5.15-6.39c1.7-1.83,3.41-3.31,5.06-4.42
			c1.51-1.01,2.94-1.54,4.26-1.56c0.02,0.04,0.05,0.12,0.08,0.23c0.15,0.57,0.22,1.36,0.22,2.37c0,1.17-0.1,2.52-0.31,4.03
			c-0.21,1.53-0.48,3.13-0.81,4.76c-0.34,1.68-0.7,3.32-1.07,4.89c-0.38,1.62-0.72,3.09-1.01,4.39c-1.12,4.56-2.24,8.96-3.33,13.05
			c-1.09,4.1-2.15,8.06-3.18,11.88c-1.03,3.83-2.03,7.57-3,11.23c-0.96,3.63-1.89,7.35-2.78,11.06c-0.21,0.87-0.41,1.82-0.61,2.81
			c-0.2,1.03-0.3,2.07-0.3,3.09c0,0.84,0.1,1.64,0.28,2.36c0.2,0.78,0.54,1.48,1,2.07c0.48,0.61,1.13,1.1,1.92,1.46
			c0.78,0.35,1.73,0.53,2.84,0.53c1.58,0,2.98-0.77,4.16-2.27c1.03-1.31,2-2.9,2.89-4.72c0.87-1.79,1.68-3.64,2.4-5.5
			c0.69-1.8,1.37-3.28,2.02-4.4c1.38-2.42,2.93-4.99,4.61-7.62c1.69-2.65,3.46-5.34,5.25-7.98c1.81-2.67,3.61-5.33,5.39-7.98
			c1.78-2.64,3.47-5.19,5.02-7.58c1.95-3.04,4.06-6.11,6.25-9.13c2.19-3.02,4.4-5.91,6.59-8.59c2.18-2.68,4.37-5.14,6.5-7.31
			c1.71-1.74,3.34-3.25,4.88-4.5c0.06,0.22,0.12,0.45,0.19,0.69c0.08,0.29,0.12,0.62,0.12,0.99c0,0.36-0.04,0.74-0.11,1.15
			c-0.08,0.45-0.19,0.97-0.31,1.55l-13.12,62.3l-0.03,0.13l0.01,0.14c0.05,0.72,0.23,1.52,0.53,2.38c0.3,0.86,0.73,1.68,1.27,2.43
			c0.54,0.75,1.17,1.39,1.86,1.9c0.78,0.56,1.62,0.85,2.51,0.85c1.49,0,2.78-0.44,3.82-1.3c0.96-0.79,1.74-1.74,2.32-2.81
			c0.56-1.03,0.99-2.1,1.28-3.18c0.28-1.05,0.48-1.85,0.61-2.45c0.25-1.27,0.57-3.01,0.98-5.33c0.4-2.27,0.84-4.85,1.33-7.73
			c0.48-2.88,1.01-5.98,1.58-9.3c0.57-3.32,1.14-6.69,1.7-10.09c0.57-3.41,1.12-6.76,1.67-10.06c0.55-3.3,1.06-6.37,1.54-9.2
			c0.48-2.84,0.9-5.35,1.26-7.54c0.35-2.13,0.63-3.81,0.84-4.99c0.38-1.48,0.72-3.15,1.02-4.97c0.3-1.85,0.45-3.71,0.45-5.52
			c0-1.18-0.09-2.33-0.26-3.44c-0.19-1.16-0.52-2.19-0.99-3.06c-0.49-0.91-1.15-1.66-1.95-2.21
			C125.27,41.49,124.23,41.2,123.02,41.2L123.02,41.2z"/>
	</g>
</g>
</svg>
